<?xml version="1.0" encoding="UTF-8"?>
<svg version="1.1" viewBox="0 0 1000 1000" width="1000" height="1000" xmlns="http://www.w3.org/2000/svg">
<path transform="translate(472,75)" d="m0 0h57l30 3 29 5 29 7 36 12 26 11 16 8 19 10 21 13 17 12 13 10 11 9 10 9 8 7 22 22 9 11 8 9 15 20 14 21 9 15 13 24 14 32 12 36 7 27 5 27 4 36v59l-4 36-7 36-8 28-9 26-11 25-8 16-10 19-14 22-10 14-10 13-9 11-9 10-7 8-22 22-8 7-17 14-19 14-17 11-17 10-22 12-32 14-36 12-27 7-27 5-24 3-13 1h-57l-30-3-29-5-29-7-36-12-26-11-16-8-19-10-21-13-17-12-13-10-11-9-10-9-8-7-22-22-9-11-8-9-15-20-14-21-13-22-9-17-14-32-12-36-7-27-5-27-4-36v-59l4-36 7-36 8-28 9-26 11-25 8-16 9-17 13-21 12-17 10-13 9-11 9-10 7-8 22-22 11-9 9-8 20-15 21-14 17-10 20-11 29-13 28-10 27-8 34-7 30-4z" fill="#24AD77"/>
<path transform="translate(518,145)" d="m0 0 31 1 33 4 27 6 20 6 21 8 25 12 18 11 17 12 13 11 8 7 14 14 11 14 10 14 10 18 7 15 7 20 5 19 4 25v3h-94l-4-23-6-20-8-17-10-15-12-14-11-10-17-12-16-9-16-7-26-8-23-4-24-2h-22l-24 2-23 4-24 7-23 10-17 10-11 8-11 9-13 12-7 8-13 17-11 18-9 17-9 23-7 23-5 22-4 26-3 36v48l2 28 4 29 6 27 7 24 10 24 12 23 11 16 13 16 17 17 9 7 1-375h195l27 2 26 4 20 5 13 5 14 8 10 8 12 12 10 15 8 15 6 17 4 17 2 21-1 25-3 18-6 20-8 16-7 11-11 12-7 7-16 11-17 9-27 9-20 4-28 3h-135l1 133 20 5 21 3 12 1h33l21-2 22-4 24-7 20-9 14-8 12-9 10-9 5-5 10-11 10-16 8-16 6-18 5-23 2-14h93l1 4-4 27-6 25-8 24-13 27-11 17-10 13-11 12-14 14-14 11-16 11-17 10-25 12-33 11-26 6-27 4-29 2h-29l-29-2-28-4-26-6-30-10-20-9-19-10-17-11-16-12-14-12-23-23-9-11-12-16-12-19-10-18-9-19-9-24-8-26-6-27-5-32-3-36v-55l3-37 5-32 6-27 9-29 10-25 9-19 11-19 10-15 13-17 13-15 19-19 11-9 17-13 21-13 17-9 24-10 25-8 27-6 28-4 12-1z" fill="#FEFEFE"/>
<path transform="translate(449,414)" d="m0 0h134l24 2 19 4 16 8 8 7 9 12 8 16 4 16 1 8v16l-2 15-5 16-6 11-8 10-8 7-14 8-19 6-18 3-13 1h-130z" fill="#24AD77"/>
</svg>
