<?xml version="1.0" encoding="UTF-8"?>
<svg version="1.1" viewBox="0 0 1064 1064" width="266" height="266" xmlns="http://www.w3.org/2000/svg">
<path transform="translate(458,116)" d="m0 0h141l33 2 31 5 21 6 21 8 21 10 18 11 17 12 15 13 13 13 9 11 10 13 12 19 9 17 10 25 8 26 5 26 3 27v24l-4 1h-77l-4-2-3-33-3-17-6-23-8-20-9-17-12-17-14-15-10-9-15-11-16-9-23-9-16-4-25-3-46-1h-85l-30 1-23 3-23 6-16 6-14 8-17 12-10 9-7 6-7 8-8 10-9 13-9 16-8 17-7 19-6 23-5 32-1 17v289l2 26 4 24 7 25 7 19 11 23 12 18 8 10 9 10 12 12 15 11 14 8 1 1 1-511h292l21 3 20 6 14 6 16 10 11 10 7 6 9 11 8 13 7 15 5 18 2 14 1 20v80l-1 17-4 22-5 15-8 17-10 14-12 13-11 10-15 10-17 8-15 5-18 4-18 2-47 1h-173l1 179h150l20-1 22-4 20-6 13-5 17-9 14-10 14-12 9-9 13-17 7-11 11-21 8-21 5-19 4-24 2-20 1-18 1-1h85v13l-3 38-5 28-8 29-8 22-11 24-10 17-7 11-10 13-10 11-7 8-12 11-9 8-20 14-11 7-23 11-19 7-18 6-30 6-15 2-19 1h-150l-23-1-22-3-24-5-26-9-16-7-22-12-11-8-17-13-13-12-12-12-11-12-12-16-10-16-10-18-10-22-8-22-8-31-4-22-2-13-2-28-1-23v-247l2-42 2-17 5-29 8-30 8-22 11-25 14-24 8-11 13-16 8-10 10-10 8-7 13-11 12-8 14-9 25-13 25-9 17-5 32-6 11-1z" fill="#020202"/>
<path transform="translate(442,418)" d="m0 0h224l15 3 12 4 16 9 5 4v2l4 2 7 10 6 12 4 13 1 10v86l-1 18-4 17-5 12-7 11-13 13-16 10-16 6-8 2-10 1h-215v-244z" fill="#0066B4"/>
</svg>
