<?xml version="1.0" encoding="UTF-8"?>
<svg version="1.1" viewBox="0 0 1064 1064" width="266" height="266" xmlns="http://www.w3.org/2000/svg">
<path transform="translate(470,115)" d="m0 0h121l37 2 29 4 23 6 22 8 27 13 19 12 14 10 11 10 8 7 13 14 11 14 10 15 9 15 9 19 8 21 7 24 4 20 3 22 1 16v17l-2 1h-83l-1-1-4-40-6-26-6-18-10-21-9-14-10-13-15-15-14-11-16-10-17-8-18-6-13-3-18-2-16-1h-140l-22 2-20 4-16 5-13 5-16 9-14 10-10 9-7 6-7 8-9 11-7 10-11 19-8 17-9 27-5 22-3 21-1 11-1 34v237l1 35 2 20 4 24 7 25 10 25 10 19 14 20 11 12 6 7 11 9 11 8 16 9v-510l196-1h90l20 2 17 4 19 7 16 9 13 10 16 16 10 15 8 17 5 17 3 20v109l-4 24-7 21-9 17-9 12-9 10-12 11-15 10-19 9-19 6-14 3-22 2-213 1v177h161l18-2 24-6 20-7 17-9 18-13 13-12 9-9 12-16 10-17 10-21 7-21 5-24 3-20 2-30 28-1h36l22 1 1 3-2 32-3 26-5 24-9 31-12 29-10 19-12 19-11 14-9 10-23 23-14 10-18 12-23 12-15 6-24 8-28 6-12 2-37 2h-126l-36-1-27-4-21-5-31-11-20-10-14-8-18-14-10-8-10-9-18-18-13-17-8-11-14-24-10-21-8-20-9-32-4-20-3-19-3-47v-265l3-44 5-30 9-34 8-22 10-23 14-24 10-14 13-16 9-11 17-16 17-13 15-10 16-9 16-8 19-7 19-6 31-6 6-1z" fill="#F9FBFB"/>
<path transform="translate(448,417)" d="m0 0h214l12 2 16 4 13 7 10 8 9 9 7 11 6 18v105l-2 20-6 16-7 12-10 11-15 11-8 4-20 7-19 1-203 1-3-2-1-28v-212l2-4z" fill="#0352A4"/>
<path transform="translate(793,475)" d="m0 0h1l1 7v109l-2 13h-1z" fill="#739FCC"/>
<path transform="translate(768,357)" d="m0 0h1l3 25 1 1 81 1v1h-83l-1-1-2-19z" fill="#0553A4"/>
<path transform="translate(307,162)" d="m0 0 2 1-17 13-13 12-16 16v-3l12-13 10-9 12-10z" fill="#0352A4"/>
<path transform="translate(329,835)" d="m0 0 7 6 8 9 11 9 6 5h-3l-10-8-10-9-9-10z" fill="#0352A4"/>
<path transform="translate(278,186)" d="m0 0 2 1-17 17v-3l12-13z" fill="#5187C0"/>
</svg>
